<svg xmlns="http://www.w3.org/2000/svg" width="2867" height="417" viewBox="0 0 2867 417">
  <metadata><?xpacket begin="﻿" id="W5M0MpCehiHzreSzNTczkc9d"?>
<x:xmpmeta xmlns:x="adobe:ns:meta/" x:xmptk="Adobe XMP Core 5.6-c142 79.160924, 2017/07/13-01:06:39        ">
   <rdf:RDF xmlns:rdf="http://www.w3.org/1999/02/22-rdf-syntax-ns#">
      <rdf:Description rdf:about=""/>
   </rdf:RDF>
</x:xmpmeta>
                                                                                                    
                                                                                                    
                                                                                                    
                                                                                                    
                                                                                                    
                                                                                                    
                                                                                                    
                                                                                                    
                                                                                                    
                                                                                                    
                                                                                                    
                                                                                                    
                                                                                                    
                                                                                                    
                                                                                                    
                                                                                                    
                                                                                                    
                                                                                                    
                                                                                                    
                                                                                                    
                           
<?xpacket end="w"?></metadata>
<defs>
    <style>
      .cls-1 {
        fill: #fff;
        fill-rule: evenodd;
      }
    </style>
  </defs>
  <path id="Clark" class="cls-1" d="M302.115,97.063a112.5,112.5,0,0,1,85.2,39.6l77.4-66.6a214.954,214.954,0,0,0-162.6-75c-118.2,0-214.2,96-214.2,214.2s96,214.2,214.2,214.2c58.2,0,112.8-23.4,153.6-65.4l-73.2-70.8c-21.6,21.6-49.8,33.6-80.4,33.6-61.8,0-112.2-49.8-112.2-111.6S240.315,97.063,302.115,97.063ZM764.721-.138h-102v419.4h334.2v-102.6h-232.2V-0.138Zm757.2,419.4h110.4l-162-419.4h-108l-161.41,419.4h110.41l19.8-51.6h171Zm-151.8-153.6,46.2-121.2,46.8,121.2h-93Zm828-136.2c0-71.4-58.8-129.6-130.2-129.6h-239.4v419.4h102v-159.6h102.6l62.4,159.6h112.2l-72-178.8A130.577,130.577,0,0,0,2198.12,129.464Zm-130.2,28.2h-137.4v-55.8h137.4a27.917,27.917,0,0,1,27.6,27.6C2095.52,145.064,2082.92,157.664,2067.92,157.664Zm694.8-158.4h-133.8l-109.2,129V1.062h-102v418.2h102v-133.2l28.8-33.6,109.2,166.8h121.8l-162-247.8Z"/>
</svg>
